<?xml version="1.0" encoding="UTF-8" standalone="no"?>
<!-- Created with Inkscape (http://www.inkscape.org/) -->

<svg
   xmlns:dc="http://purl.org/dc/elements/1.1/"
   xmlns:cc="http://creativecommons.org/ns#"
   xmlns:rdf="http://www.w3.org/1999/02/22-rdf-syntax-ns#"
   xmlns:svg="http://www.w3.org/2000/svg"
   xmlns="http://www.w3.org/2000/svg"
   xmlns:xlink="http://www.w3.org/1999/xlink"
   xmlns:sodipodi="http://sodipodi.sourceforge.net/DTD/sodipodi-0.dtd"
   xmlns:inkscape="http://www.inkscape.org/namespaces/inkscape"
   width="497.15121"
   height="176.65172"
   id="svg2"
   version="1.1"
   inkscape:version="0.48.5 r10040"
   sodipodi:docname="logo.svg">
  <defs
     id="defs4">
    <inkscape:perspective
       sodipodi:type="inkscape:persp3d"
       inkscape:vp_x="0 : 526.18109 : 1"
       inkscape:vp_y="0 : 1000 : 0"
       inkscape:vp_z="744.09448 : 526.18109 : 1"
       inkscape:persp3d-origin="372.04724 : 350.78739 : 1"
       id="perspective4005" />
    <linearGradient
       inkscape:collect="always"
       xlink:href="#SVGID_1_"
       id="linearGradient5524"
       gradientUnits="userSpaceOnUse"
       x1="147.3062"
       y1="65.828598"
       x2="147.30611"
       y2="454.82471" />
    <linearGradient
       inkscape:collect="always"
       xlink:href="#SVGID_2_"
       id="linearGradient5526"
       gradientUnits="userSpaceOnUse"
       x1="515.23828"
       y1="65.826202"
       x2="515.23828"
       y2="454.82541" />
    <linearGradient
       inkscape:collect="always"
       xlink:href="#SVGID_3_"
       id="linearGradient5528"
       gradientUnits="userSpaceOnUse"
       x1="694.16803"
       y1="65.827103"
       x2="694.16803"
       y2="454.82611" />
    <linearGradient
       inkscape:collect="always"
       xlink:href="#SVGID_4_"
       id="linearGradient5530"
       gradientUnits="userSpaceOnUse"
       x1="358.57571"
       y1="65.827103"
       x2="358.57571"
       y2="454.82571" />
    <linearGradient
       y2="454.82471"
       x2="147.30611"
       y1="65.828598"
       x1="147.3062"
       gradientUnits="userSpaceOnUse"
       id="SVGID_1_">
      <stop
         id="stop5456"
         style="stop-color:#333333"
         offset="0" />
      <stop
         id="stop5458"
         style="stop-color:#000000"
         offset="1" />
    </linearGradient>
    <linearGradient
       y2="454.82541"
       x2="515.23828"
       y1="65.826202"
       x1="515.23828"
       gradientUnits="userSpaceOnUse"
       id="SVGID_2_">
      <stop
         id="stop5463"
         style="stop-color:#333333"
         offset="0" />
      <stop
         id="stop5465"
         style="stop-color:#000000"
         offset="1" />
    </linearGradient>
    <linearGradient
       y2="454.82611"
       x2="694.16803"
       y1="65.827103"
       x1="694.16803"
       gradientUnits="userSpaceOnUse"
       id="SVGID_3_">
      <stop
         id="stop5470"
         style="stop-color:#333333"
         offset="0" />
      <stop
         id="stop5472"
         style="stop-color:#000000"
         offset="1" />
    </linearGradient>
    <linearGradient
       y2="454.82571"
       x2="358.57571"
       y1="65.827103"
       x1="358.57571"
       gradientUnits="userSpaceOnUse"
       id="SVGID_4_">
      <stop
         id="stop5477"
         style="stop-color:#333333"
         offset="0" />
      <stop
         id="stop5479"
         style="stop-color:#000000"
         offset="1" />
    </linearGradient>
  </defs>
  <sodipodi:namedview
     id="base"
     pagecolor="#ffffff"
     bordercolor="#666666"
     borderopacity="1.0"
     inkscape:pageopacity="0.0"
     inkscape:pageshadow="2"
     inkscape:zoom="0.98994949"
     inkscape:cx="350.91237"
     inkscape:cy="116.55311"
     inkscape:document-units="px"
     inkscape:current-layer="layer1"
     showgrid="false"
     inkscape:window-width="1297"
     inkscape:window-height="794"
     inkscape:window-x="0"
     inkscape:window-y="0"
     inkscape:window-maximized="0"
     fit-margin-top="0"
     fit-margin-left="0"
     fit-margin-right="0"
     fit-margin-bottom="0" />
  <metadata
     id="metadata7">
    <rdf:RDF>
      <cc:Work
         rdf:about="">
        <dc:format>image/svg+xml</dc:format>
        <dc:type
           rdf:resource="http://purl.org/dc/dcmitype/StillImage" />
        <dc:title />
      </cc:Work>
    </rdf:RDF>
  </metadata>
  <g
     inkscape:label="Layer 1"
     inkscape:groupmode="layer"
     id="layer1"
     transform="translate(-139.71656,-239.39299)">
    <text
       xml:space="preserve"
       style="font-size:40px;font-style:normal;font-variant:normal;font-weight:normal;font-stretch:normal;line-height:125%;letter-spacing:0px;word-spacing:0px;fill:#000000;fill-opacity:1;stroke:none;font-family:Quicksand;-inkscape-font-specification:Quicksand"
       x="437.14285"
       y="666.64789"
       id="text2993"
       sodipodi:linespacing="125%"><tspan
         sodipodi:role="line"
         id="tspan2995"
         x="437.14285"
         y="666.64789" /></text>
    <path
       sodipodi:type="star"
       style="fill:#d7e3f4;fill-opacity:1;stroke:#4d4d4d;stroke-width:0.4161804;stroke-linecap:butt;stroke-linejoin:round;stroke-miterlimit:4;stroke-opacity:1;stroke-dasharray:none"
       id="path4078"
       sodipodi:sides="4"
       sodipodi:cx="114.28571"
       sodipodi:cy="144.50504"
       sodipodi:r1="28.793777"
       sodipodi:r2="20.360275"
       sodipodi:arg1="-2.3386524"
       sodipodi:arg2="-1.5532543"
       inkscape:flatsided="true"
       inkscape:rounded="0.24"
       inkscape:randomized="0"
       d="m 94.285714,123.79075 c 7.030666,-6.78823 33.926056,-6.31638 40.714286,0.71429 6.78822,7.03066 6.31637,33.92606 -0.71429,40.71428 -7.03066,6.78823 -33.92606,6.31638 -40.714283,-0.71429 -6.788225,-7.03066 -6.316375,-33.92606 0.714287,-40.71428 z"
       transform="matrix(3.6872536,0,0,3.4281903,-186.73924,-167.67191)" />
    <g
       id="g5216"
       transform="matrix(1.7378332,0,0,1.8835429,-100.57571,-262.62271)">
      <path
         inkscape:connector-curvature="0"
         id="path3769"
         d="m 174.46143,310.57552 11.50099,-3.737"
         style="fill:none;stroke:#4d4d4d;stroke-width:0.13877709px;stroke-linecap:butt;stroke-linejoin:miter;stroke-opacity:1" />
      <path
         sodipodi:nodetypes="cc"
         style="fill:none;stroke:#4d4d4d;stroke-width:0.13877709px;stroke-linecap:butt;stroke-linejoin:miter;stroke-opacity:1"
         d="m 173.89348,302.55068 5.6795,-0.55363"
         id="path3805"
         inkscape:connector-curvature="0" />
      <path
         inkscape:connector-curvature="0"
         id="path3807"
         d="m 173.32553,304.07038 9.93912,9.4117"
         style="fill:none;stroke:#4d4d4d;stroke-width:0.13877709px;stroke-linecap:butt;stroke-linejoin:miter;stroke-opacity:1"
         sodipodi:nodetypes="cc" />
      <path
         sodipodi:nodetypes="cc"
         style="fill:none;stroke:#4d4d4d;stroke-width:0.13877709px;stroke-linecap:butt;stroke-linejoin:miter;stroke-opacity:1"
         d="m 183.97459,301.71745 11.78497,0.83045"
         id="path3809"
         inkscape:connector-curvature="0" />
      <path
         sodipodi:nodetypes="cc"
         style="fill:none;stroke:#4d4d4d;stroke-width:0.13877709px;stroke-linecap:butt;stroke-linejoin:miter;stroke-opacity:1"
         d="m 174.46143,312.09801 8.37727,2.62974"
         id="path3811"
         inkscape:connector-curvature="0" />
      <path
         sodipodi:nodetypes="cc"
         style="fill:none;stroke:#4d4d4d;stroke-width:0.13877709px;stroke-linecap:butt;stroke-linejoin:miter;stroke-opacity:1"
         d="m 189.65409,306.97693 5.53752,2.21452"
         id="path3813"
         inkscape:connector-curvature="0" />
      <path
         sodipodi:nodetypes="cc"
         style="fill:none;stroke:#4d4d4d;stroke-width:0.13877709px;stroke-linecap:butt;stroke-linejoin:miter;stroke-opacity:1"
         d="m 186.53037,313.8973 9.93912,-9.55011"
         id="path3815"
         inkscape:connector-curvature="0" />
      <g
         style="fill:#007db2;fill-opacity:1"
         id="g5190">
        <path
           transform="matrix(0.02469359,0,0,0.02965198,179.09502,296.21437)"
           d="m 423.25392,343.74017 c 0,29.28933 -28.94468,53.03301 -64.64976,53.03301 -35.70508,0 -64.64977,-23.74368 -64.64977,-53.03301 0,-29.28932 28.94469,-53.03301 64.64977,-53.03301 35.70508,0 64.64976,23.74369 64.64976,53.03301 z"
           sodipodi:ry="53.033009"
           sodipodi:rx="64.649765"
           sodipodi:cy="343.74017"
           sodipodi:cx="358.60416"
           id="path3793"
           style="fill:#007db2;fill-opacity:1;fill-rule:nonzero;stroke:#4d4d4d;stroke-width:0.551;stroke-miterlimit:4;stroke-opacity:1;stroke-dasharray:none"
           sodipodi:type="arc" />
        <path
           sodipodi:type="arc"
           style="fill:#007db2;fill-opacity:1;fill-rule:nonzero;stroke:#4d4d4d;stroke-width:0.551;stroke-miterlimit:4;stroke-opacity:1;stroke-dasharray:none"
           id="path2999"
           sodipodi:cx="358.60416"
           sodipodi:cy="343.74017"
           sodipodi:rx="64.649765"
           sodipodi:ry="53.033009"
           d="m 423.25392,343.74017 c 0,29.28933 -28.94468,53.03301 -64.64976,53.03301 -35.70508,0 -64.64977,-23.74368 -64.64977,-53.03301 0,-29.28932 28.94469,-53.03301 64.64977,-53.03301 35.70508,0 64.64976,23.74369 64.64976,53.03301 z"
           transform="matrix(0.02469359,0,0,0.02965198,163.76037,301.33544)" />
        <path
           sodipodi:type="arc"
           style="fill:#007db2;fill-opacity:1;fill-rule:nonzero;stroke:#4d4d4d;stroke-width:0.551;stroke-miterlimit:4;stroke-opacity:1;stroke-dasharray:none"
           id="path3795"
           sodipodi:cx="358.60416"
           sodipodi:cy="343.74017"
           sodipodi:rx="64.649765"
           sodipodi:ry="53.033009"
           d="m 423.25392,343.74017 c 0,29.28933 -28.94468,53.03301 -64.64976,53.03301 -35.70508,0 -64.64977,-23.74368 -64.64977,-53.03301 0,-29.28932 28.94469,-53.03301 64.64977,-53.03301 35.70508,0 64.64976,23.74369 64.64976,53.03301 z"
           transform="matrix(0.02469359,0,0,0.02965198,163.05043,292.4885)" />
        <path
           transform="matrix(0.02469359,0,0,0.02965198,172.98955,291.64693)"
           d="m 423.25392,343.74017 c 0,29.28933 -28.94468,53.03301 -64.64976,53.03301 -35.70508,0 -64.64977,-23.74368 -64.64977,-53.03301 0,-29.28932 28.94469,-53.03301 64.64977,-53.03301 35.70508,0 64.64976,23.74369 64.64976,53.03301 z"
           sodipodi:ry="53.033009"
           sodipodi:rx="64.649765"
           sodipodi:cy="343.74017"
           sodipodi:cx="358.60416"
           id="path3797"
           style="fill:#007db2;fill-opacity:1;fill-rule:nonzero;stroke:#4d4d4d;stroke-width:0.551;stroke-miterlimit:4;stroke-opacity:1;stroke-dasharray:none"
           sodipodi:type="arc" />
        <path
           sodipodi:type="arc"
           style="fill:#007db2;fill-opacity:1;fill-rule:nonzero;stroke:#4d4d4d;stroke-width:0.551;stroke-miterlimit:4;stroke-opacity:1;stroke-dasharray:none"
           id="path3799"
           sodipodi:cx="358.60416"
           sodipodi:cy="343.74017"
           sodipodi:rx="64.649765"
           sodipodi:ry="53.033009"
           d="m 423.25392,343.74017 c 0,29.28933 -28.94468,53.03301 -64.64976,53.03301 -35.70508,0 -64.64977,-23.74368 -64.64977,-53.03301 0,-29.28932 28.94469,-53.03301 64.64977,-53.03301 35.70508,0 64.64976,23.74369 64.64976,53.03301 z"
           transform="matrix(0.02469359,0,0,0.02965198,176.11328,304.79563)" />
        <path
           transform="matrix(0.02469359,0,0,0.02965198,189.17613,292.47737)"
           d="m 423.25392,343.74017 c 0,29.28933 -28.94468,53.03301 -64.64976,53.03301 -35.70508,0 -64.64977,-23.74368 -64.64977,-53.03301 0,-29.28932 28.94469,-53.03301 64.64977,-53.03301 35.70508,0 64.64976,23.74369 64.64976,53.03301 z"
           sodipodi:ry="53.033009"
           sodipodi:rx="64.649765"
           sodipodi:cy="343.74017"
           sodipodi:cx="358.60416"
           id="path3801"
           style="fill:#007db2;fill-opacity:1;fill-rule:nonzero;stroke:#4d4d4d;stroke-width:0.551;stroke-miterlimit:4;stroke-opacity:1;stroke-dasharray:none"
           sodipodi:type="arc" />
        <path
           sodipodi:type="arc"
           style="fill:#007db2;fill-opacity:1;fill-rule:nonzero;stroke:#4d4d4d;stroke-width:0.551;stroke-miterlimit:4;stroke-opacity:1;stroke-dasharray:none"
           id="path3803"
           sodipodi:cx="358.60416"
           sodipodi:cy="343.74017"
           sodipodi:rx="64.649765"
           sodipodi:ry="53.033009"
           d="m 423.25392,343.74017 c 0,29.28933 -28.94468,53.03301 -64.64976,53.03301 -35.70508,0 -64.64977,-23.74368 -64.64977,-53.03301 0,-29.28932 28.94469,-53.03301 64.64977,-53.03301 35.70508,0 64.64976,23.74369 64.64976,53.03301 z"
           transform="matrix(0.02469359,0,0,0.02965198,188.18222,299.53615)" />
        <path
           sodipodi:type="arc"
           style="fill:#007db2;fill-opacity:1;fill-rule:nonzero;stroke:#4d4d4d;stroke-width:0.551;stroke-miterlimit:4;stroke-opacity:1;stroke-dasharray:none"
           id="path3817"
           sodipodi:cx="358.60416"
           sodipodi:cy="343.74017"
           sodipodi:rx="64.649765"
           sodipodi:ry="53.033009"
           d="m 423.25392,343.74017 c 0,29.28933 -28.94468,53.03301 -64.64976,53.03301 -35.70508,0 -64.64977,-23.74368 -64.64977,-53.03301 0,-29.28932 28.94469,-53.03301 64.64977,-53.03301 35.70508,0 64.64976,23.74369 64.64976,53.03301 z"
           transform="matrix(0.02469359,0,0,0.02965198,195.9987,295.81388)" />
        <path
           transform="matrix(0.02469359,0,0,0.02965198,206.74425,287.13896)"
           d="m 423.25392,343.74017 c 0,29.28933 -28.94468,53.03301 -64.64976,53.03301 -35.70508,0 -64.64977,-23.74368 -64.64977,-53.03301 0,-29.28932 28.94469,-53.03301 64.64977,-53.03301 35.70508,0 64.64976,23.74369 64.64976,53.03301 z"
           sodipodi:ry="53.033009"
           sodipodi:rx="64.649765"
           sodipodi:cy="343.74017"
           sodipodi:cx="358.60416"
           id="path3819"
           style="fill:#007db2;fill-opacity:1;fill-rule:nonzero;stroke:#4d4d4d;stroke-width:0.551;stroke-miterlimit:4;stroke-opacity:1;stroke-dasharray:none"
           sodipodi:type="arc" />
        <path
           sodipodi:type="arc"
           style="fill:#007db2;fill-opacity:1;fill-rule:nonzero;stroke:#4d4d4d;stroke-width:0.551;stroke-miterlimit:4;stroke-opacity:1;stroke-dasharray:none"
           id="path3821"
           sodipodi:cx="358.60416"
           sodipodi:cy="343.74017"
           sodipodi:rx="64.649765"
           sodipodi:ry="53.033009"
           d="m 423.25392,343.74017 c 0,29.28933 -28.94468,53.03301 -64.64976,53.03301 -35.70508,0 -64.64977,-23.74368 -64.64977,-53.03301 0,-29.28932 28.94469,-53.03301 64.64977,-53.03301 35.70508,0 64.64976,23.74369 64.64976,53.03301 z"
           transform="matrix(0.02469359,0,0,0.02965198,212.88457,304.32197)" />
        <path
           transform="matrix(0.02469359,0,0,0.02965198,206.57369,297.98261)"
           d="m 423.25392,343.74017 c 0,29.28933 -28.94468,53.03301 -64.64976,53.03301 -35.70508,0 -64.64977,-23.74368 -64.64977,-53.03301 0,-29.28932 28.94469,-53.03301 64.64977,-53.03301 35.70508,0 64.64976,23.74369 64.64976,53.03301 z"
           sodipodi:ry="53.033009"
           sodipodi:rx="64.649765"
           sodipodi:cy="343.74017"
           sodipodi:cx="358.60416"
           id="path3823"
           style="fill:#007db2;fill-opacity:1;fill-rule:nonzero;stroke:#4d4d4d;stroke-width:0.551;stroke-miterlimit:4;stroke-opacity:1;stroke-dasharray:none"
           sodipodi:type="arc" />
        <path
           sodipodi:type="arc"
           style="fill:#007db2;fill-opacity:1;fill-rule:nonzero;stroke:#4d4d4d;stroke-width:0.551;stroke-miterlimit:4;stroke-opacity:1;stroke-dasharray:none"
           id="path3825"
           sodipodi:cx="358.60416"
           sodipodi:cy="343.74017"
           sodipodi:rx="64.649765"
           sodipodi:ry="53.033009"
           d="m 423.25392,343.74017 c 0,29.28933 -28.94468,53.03301 -64.64976,53.03301 -35.70508,0 -64.64977,-23.74368 -64.64977,-53.03301 0,-29.28932 28.94469,-53.03301 64.64977,-53.03301 35.70508,0 64.64976,23.74369 64.64976,53.03301 z"
           transform="matrix(0.02469359,0,0,0.02965198,212.03174,291.81007)" />
        <path
           transform="matrix(0.02469359,0,0,0.02965198,176.38381,284.63658)"
           d="m 423.25392,343.74017 c 0,29.28933 -28.94468,53.03301 -64.64976,53.03301 -35.70508,0 -64.64977,-23.74368 -64.64977,-53.03301 0,-29.28932 28.94469,-53.03301 64.64977,-53.03301 35.70508,0 64.64976,23.74369 64.64976,53.03301 z"
           sodipodi:ry="53.033009"
           sodipodi:rx="64.649765"
           sodipodi:cy="343.74017"
           sodipodi:cx="358.60416"
           id="path3827"
           style="fill:#007db2;fill-opacity:1;fill-rule:nonzero;stroke:#4d4d4d;stroke-width:0.551;stroke-miterlimit:4;stroke-opacity:1;stroke-dasharray:none"
           sodipodi:type="arc" />
        <path
           sodipodi:type="arc"
           style="fill:#007db2;fill-opacity:1;fill-rule:nonzero;stroke:#4d4d4d;stroke-width:0.551;stroke-miterlimit:4;stroke-opacity:1;stroke-dasharray:none"
           id="path3829"
           sodipodi:cx="358.60416"
           sodipodi:cy="343.74017"
           sodipodi:rx="64.649765"
           sodipodi:ry="53.033009"
           d="m 423.25392,343.74017 c 0,29.28933 -28.94468,53.03301 -64.64976,53.03301 -35.70508,0 -64.64977,-23.74368 -64.64977,-53.03301 0,-29.28932 28.94469,-53.03301 64.64977,-53.03301 35.70508,0 64.64976,23.74369 64.64976,53.03301 z"
           transform="matrix(0.02469359,0,0,0.02965198,187.81162,281.80055)" />
        <path
           transform="matrix(0.02469359,0,0,0.02965198,164.27375,275.62801)"
           d="m 423.25392,343.74017 c 0,29.28933 -28.94468,53.03301 -64.64976,53.03301 -35.70508,0 -64.64977,-23.74368 -64.64977,-53.03301 0,-29.28932 28.94469,-53.03301 64.64977,-53.03301 35.70508,0 64.64976,23.74369 64.64976,53.03301 z"
           sodipodi:ry="53.033009"
           sodipodi:rx="64.649765"
           sodipodi:cy="343.74017"
           sodipodi:cx="358.60416"
           id="path3831"
           style="fill:#007db2;fill-opacity:1;fill-rule:nonzero;stroke:#4d4d4d;stroke-width:0.551;stroke-miterlimit:4;stroke-opacity:1;stroke-dasharray:none"
           sodipodi:type="arc" />
        <path
           sodipodi:type="arc"
           style="fill:#007db2;fill-opacity:1;fill-rule:nonzero;stroke:#4d4d4d;stroke-width:0.551;stroke-miterlimit:4;stroke-opacity:1;stroke-dasharray:none"
           id="path3833"
           sodipodi:cx="358.60416"
           sodipodi:cy="343.74017"
           sodipodi:rx="64.649765"
           sodipodi:ry="53.033009"
           d="m 423.25392,343.74017 c 0,29.28933 -28.94468,53.03301 -64.64976,53.03301 -35.70508,0 -64.64977,-23.74368 -64.64977,-53.03301 0,-29.28932 28.94469,-53.03301 64.64977,-53.03301 35.70508,0 64.64976,23.74369 64.64976,53.03301 z"
           transform="matrix(0.02469359,0,0,0.02965198,185.25315,274.62706)" />
        <path
           transform="matrix(0.02469359,0,0,0.02965198,174.5076,269.12182)"
           d="m 423.25392,343.74017 c 0,29.28933 -28.94468,53.03301 -64.64976,53.03301 -35.70508,0 -64.64977,-23.74368 -64.64977,-53.03301 0,-29.28932 28.94469,-53.03301 64.64977,-53.03301 35.70508,0 64.64976,23.74369 64.64976,53.03301 z"
           sodipodi:ry="53.033009"
           sodipodi:rx="64.649765"
           sodipodi:cy="343.74017"
           sodipodi:cx="358.60416"
           id="path3835"
           style="fill:#007db2;fill-opacity:1;fill-rule:nonzero;stroke:#4d4d4d;stroke-width:0.551;stroke-miterlimit:4;stroke-opacity:1;stroke-dasharray:none"
           sodipodi:type="arc" />
        <path
           sodipodi:type="arc"
           style="fill:#007db2;fill-opacity:1;fill-rule:nonzero;stroke:#4d4d4d;stroke-width:0.551;stroke-miterlimit:4;stroke-opacity:1;stroke-dasharray:none"
           id="path3837"
           sodipodi:cx="358.60416"
           sodipodi:cy="343.74017"
           sodipodi:rx="64.649765"
           sodipodi:ry="53.033009"
           d="m 423.25392,343.74017 c 0,29.28933 -28.94468,53.03301 -64.64976,53.03301 -35.70508,0 -64.64977,-23.74368 -64.64977,-53.03301 0,-29.28932 28.94469,-53.03301 64.64977,-53.03301 35.70508,0 64.64976,23.74369 64.64976,53.03301 z"
           transform="matrix(0.02469359,0,0,0.02965198,205.03861,278.79769)" />
        <path
           transform="matrix(0.02469359,0,0,0.02965198,195.9987,281.4669)"
           d="m 423.25392,343.74017 c 0,29.28933 -28.94468,53.03301 -64.64976,53.03301 -35.70508,0 -64.64977,-23.74368 -64.64977,-53.03301 0,-29.28932 28.94469,-53.03301 64.64977,-53.03301 35.70508,0 64.64976,23.74369 64.64976,53.03301 z"
           sodipodi:ry="53.033009"
           sodipodi:rx="64.649765"
           sodipodi:cy="343.74017"
           sodipodi:cx="358.60416"
           id="path3839"
           style="fill:#007db2;fill-opacity:1;fill-rule:nonzero;stroke:#4d4d4d;stroke-width:0.551;stroke-miterlimit:4;stroke-opacity:1;stroke-dasharray:none"
           sodipodi:type="arc" />
        <path
           sodipodi:type="arc"
           style="fill:#007db2;fill-opacity:1;fill-rule:nonzero;stroke:#4d4d4d;stroke-width:0.551;stroke-miterlimit:4;stroke-opacity:1;stroke-dasharray:none"
           id="path3841"
           sodipodi:cx="358.60416"
           sodipodi:cy="343.74017"
           sodipodi:rx="64.649765"
           sodipodi:ry="53.033009"
           d="m 423.25392,343.74017 c 0,29.28933 -28.94468,53.03301 -64.64976,53.03301 -35.70508,0 -64.64977,-23.74368 -64.64977,-53.03301 0,-29.28932 28.94469,-53.03301 64.64977,-53.03301 35.70508,0 64.64976,23.74369 64.64976,53.03301 z"
           transform="matrix(0.02469359,0,0,0.02965198,201.45676,270.62325)" />
        <path
           transform="matrix(0.02469359,0,0,0.02965198,218.17205,280.46594)"
           d="m 423.25392,343.74017 c 0,29.28933 -28.94468,53.03301 -64.64976,53.03301 -35.70508,0 -64.64977,-23.74368 -64.64977,-53.03301 0,-29.28932 28.94469,-53.03301 64.64977,-53.03301 35.70508,0 64.64976,23.74369 64.64976,53.03301 z"
           sodipodi:ry="53.033009"
           sodipodi:rx="64.649765"
           sodipodi:cy="343.74017"
           sodipodi:cx="358.60416"
           id="path3843"
           style="fill:#007db2;fill-opacity:1;fill-rule:nonzero;stroke:#4d4d4d;stroke-width:0.551;stroke-miterlimit:4;stroke-opacity:1;stroke-dasharray:none"
           sodipodi:type="arc" />
        <path
           sodipodi:type="arc"
           style="fill:#007db2;fill-opacity:1;fill-rule:nonzero;stroke:#4d4d4d;stroke-width:0.551;stroke-miterlimit:4;stroke-opacity:1;stroke-dasharray:none"
           id="path3845"
           sodipodi:cx="358.60416"
           sodipodi:cy="343.74017"
           sodipodi:rx="64.649765"
           sodipodi:ry="53.033009"
           d="m 423.25392,343.74017 c 0,29.28933 -28.94468,53.03301 -64.64976,53.03301 -35.70508,0 -64.64977,-23.74368 -64.64977,-53.03301 0,-29.28932 28.94469,-53.03301 64.64977,-53.03301 35.70508,0 64.64976,23.74369 64.64976,53.03301 z"
           transform="matrix(0.02469359,0,0,0.02965198,221.07165,293.31149)" />
        <path
           transform="matrix(0.02469359,0,0,0.02965198,147.04676,291.14276)"
           d="m 423.25392,343.74017 c 0,29.28933 -28.94468,53.03301 -64.64976,53.03301 -35.70508,0 -64.64977,-23.74368 -64.64977,-53.03301 0,-29.28932 28.94469,-53.03301 64.64977,-53.03301 35.70508,0 64.64976,23.74369 64.64976,53.03301 z"
           sodipodi:ry="53.033009"
           sodipodi:rx="64.649765"
           sodipodi:cy="343.74017"
           sodipodi:cx="358.60416"
           id="path3847"
           style="fill:#007db2;fill-opacity:1;fill-rule:nonzero;stroke:#4d4d4d;stroke-width:0.551;stroke-miterlimit:4;stroke-opacity:1;stroke-dasharray:none"
           sodipodi:type="arc" />
        <path
           sodipodi:type="arc"
           style="fill:#007db2;fill-opacity:1;fill-rule:nonzero;stroke:#4d4d4d;stroke-width:0.551;stroke-miterlimit:4;stroke-opacity:1;stroke-dasharray:none"
           id="path3849"
           sodipodi:cx="358.60416"
           sodipodi:cy="343.74017"
           sodipodi:rx="64.649765"
           sodipodi:ry="53.033009"
           d="m 423.25392,343.74017 c 0,29.28933 -28.94468,53.03301 -64.64976,53.03301 -35.70508,0 -64.64977,-23.74368 -64.64977,-53.03301 0,-29.28932 28.94469,-53.03301 64.64977,-53.03301 35.70508,0 64.64976,23.74369 64.64976,53.03301 z"
           transform="matrix(0.02469359,0,0,0.02965198,148.24071,277.79674)" />
      </g>
      <path
         inkscape:connector-curvature="0"
         id="path3851"
         d="m 158.11621,301.78026 11.42781,1.00096"
         style="fill:none;stroke:#4d4d4d;stroke-width:0.13893491;stroke-linecap:butt;stroke-linejoin:miter;stroke-miterlimit:4;stroke-opacity:1;stroke-dasharray:none" />
      <path
         inkscape:connector-curvature="0"
         id="path3853"
         d="m 159.1396,289.26836 36.84188,12.67873"
         style="fill:none;stroke:#4d4d4d;stroke-width:0.13893491;stroke-linecap:butt;stroke-linejoin:miter;stroke-miterlimit:4;stroke-opacity:1;stroke-dasharray:none" />
      <path
         inkscape:connector-curvature="0"
         id="path3859"
         d="m 175.17264,284.76408 6.31087,-3.83699"
         style="fill:none;stroke:#4d4d4d;stroke-width:0.13893491;stroke-linecap:butt;stroke-linejoin:miter;stroke-miterlimit:4;stroke-opacity:1;stroke-dasharray:none" />
      <path
         inkscape:connector-curvature="0"
         id="path3863"
         d="m 173.63756,309.2874 9.03991,-28.02665"
         style="fill:none;stroke:#4d4d4d;stroke-width:0.13893491;stroke-linecap:butt;stroke-linejoin:miter;stroke-miterlimit:4;stroke-opacity:1;stroke-dasharray:none" />
      <path
         inkscape:connector-curvature="0"
         id="path3865"
         d="m 199.05163,300.77931 4.60524,-7.17349"
         style="fill:none;stroke:#4d4d4d;stroke-width:0.13893491;stroke-linecap:butt;stroke-linejoin:miter;stroke-miterlimit:4;stroke-opacity:1;stroke-dasharray:none" />
      <path
         inkscape:connector-curvature="0"
         id="path3867"
         d="m 197.51655,300.44566 -0.68225,-5.83889"
         style="fill:none;stroke:#4d4d4d;stroke-width:0.13893491;stroke-linecap:butt;stroke-linejoin:miter;stroke-miterlimit:4;stroke-opacity:1;stroke-dasharray:none" />
      <path
         inkscape:connector-curvature="0"
         id="path3869"
         d="m 200.07502,303.44852 2.3879,1.50143"
         style="fill:none;stroke:#4d4d4d;stroke-width:0.13893491;stroke-linecap:butt;stroke-linejoin:miter;stroke-miterlimit:4;stroke-opacity:1;stroke-dasharray:none" />
      <path
         inkscape:connector-curvature="0"
         id="path3871"
         d="m 199.90445,301.78026 12.11007,-10.84364"
         style="fill:none;stroke:#4d4d4d;stroke-width:0.13893491;stroke-linecap:butt;stroke-linejoin:miter;stroke-miterlimit:4;stroke-opacity:1;stroke-dasharray:none" />
      <path
         inkscape:connector-curvature="0"
         id="path3873"
         d="m 196.15204,301.11296 -8.69878,-4.83793"
         style="fill:none;stroke:#4d4d4d;stroke-width:0.13893491;stroke-linecap:butt;stroke-linejoin:miter;stroke-miterlimit:4;stroke-opacity:1;stroke-dasharray:none" />
      <path
         inkscape:connector-curvature="0"
         id="path3875"
         d="m 186.42988,292.93852 5.96975,-6.17254"
         style="fill:none;stroke:#4d4d4d;stroke-width:0.13893491;stroke-linecap:butt;stroke-linejoin:miter;stroke-miterlimit:4;stroke-opacity:1;stroke-dasharray:none" />
      <path
         inkscape:connector-curvature="0"
         id="path3877"
         d="m 194.95809,287.09963 0.85282,2.66921"
         style="fill:none;stroke:#4d4d4d;stroke-width:0.13893491;stroke-linecap:butt;stroke-linejoin:miter;stroke-miterlimit:4;stroke-opacity:1;stroke-dasharray:none" />
      <path
         inkscape:connector-curvature="0"
         id="path3879"
         d="m 199.2222,309.45423 13.98627,-1.16778"
         style="fill:none;stroke:#4d4d4d;stroke-width:0.13893491;stroke-linecap:butt;stroke-linejoin:miter;stroke-miterlimit:4;stroke-opacity:1;stroke-dasharray:none" />
      <path
         inkscape:connector-curvature="0"
         id="path3883"
         d="m 210.99113,282.76217 1.87621,4.17064"
         style="fill:none;stroke:#4d4d4d;stroke-width:0.13893491;stroke-linecap:butt;stroke-linejoin:miter;stroke-miterlimit:4;stroke-opacity:1;stroke-dasharray:none" />
      <path
         inkscape:connector-curvature="0"
         id="path3885"
         d="m 214.57298,291.10344 0.68226,3.83698"
         style="fill:none;stroke:#4d4d4d;stroke-width:0.13893491;stroke-linecap:butt;stroke-linejoin:miter;stroke-miterlimit:4;stroke-opacity:1;stroke-dasharray:none" />
      <path
         inkscape:connector-curvature="0"
         id="path3887"
         d="m 217.13144,298.77741 2.04678,1.83508"
         style="fill:none;stroke:#4d4d4d;stroke-width:0.13893491;stroke-linecap:butt;stroke-linejoin:miter;stroke-miterlimit:4;stroke-opacity:1;stroke-dasharray:none" />
      <path
         inkscape:connector-curvature="0"
         id="path3889"
         d="m 221.90724,300.11201 4.43467,-7.50714"
         style="fill:none;stroke:#4d4d4d;stroke-width:0.13893491;stroke-linecap:butt;stroke-linejoin:miter;stroke-miterlimit:4;stroke-opacity:1;stroke-dasharray:none" />
      <path
         inkscape:connector-curvature="0"
         id="path3891"
         d="m 227.53587,292.60487 1.8762,8.67492"
         style="fill:none;stroke:#4d4d4d;stroke-width:0.13893491;stroke-linecap:butt;stroke-linejoin:miter;stroke-miterlimit:4;stroke-opacity:1;stroke-dasharray:none" />
      <path
         inkscape:connector-curvature="0"
         id="path3893"
         d="m 228.90038,305.11677 -5.96975,7.50714"
         style="fill:none;stroke:#4d4d4d;stroke-width:0.13893491;stroke-linecap:butt;stroke-linejoin:miter;stroke-miterlimit:4;stroke-opacity:1;stroke-dasharray:none" />
      <path
         inkscape:connector-curvature="0"
         id="path3895"
         d="m 220.2016,312.95756 -3.41128,-3.50333"
         style="fill:none;stroke:#4d4d4d;stroke-width:0.13893491;stroke-linecap:butt;stroke-linejoin:miter;stroke-miterlimit:4;stroke-opacity:1;stroke-dasharray:none" />
      <path
         inkscape:connector-curvature="0"
         id="path3897"
         d="m 216.79032,306.45137 2.72902,-3.00285"
         style="fill:none;stroke:#4d4d4d;stroke-width:0.13893491;stroke-linecap:butt;stroke-linejoin:miter;stroke-miterlimit:4;stroke-opacity:1;stroke-dasharray:none" />
    </g>
    <g
       id="g4991"
       transform="matrix(1.3590174,0,0,1.5567318,-0.81638136,-123.74601)">
      <path
         d="m 131.82956,306.34399 c -2e-5,-1.31787 -1.32275,-1.9768 -3.9682,-1.97682 l -11.37719,0 0,6.59762 11.2265,0 c 2.74591,1e-5 4.11887,-0.6754 4.11889,-2.02624 l 0,-2.59456 m 2.51152,2.71812 c -2e-5,2.63575 -2.31062,3.95363 -6.93179,3.95362 l -10.92512,0 0,5.23856 c -1e-5,0.70835 -0.43533,1.06254 -1.30599,1.06254 -0.83718,0 -1.25576,-0.35419 -1.25576,-1.06254 l 0,-15.07321 c 0,-0.51066 0.27627,-0.766 0.8288,-0.76601 l 12.73341,0 c 4.57095,10e-6 6.85643,1.24376 6.85645,3.73124 l 0,2.9158"
         style="font-size:35px;font-style:normal;font-variant:normal;font-weight:normal;font-stretch:normal;line-height:125%;letter-spacing:0px;word-spacing:0px;fill:#007db2;fill-opacity:1;stroke:none;font-family:Neuropol X;-inkscape-font-specification:Neuropol X"
         id="path4872"
         inkscape:connector-curvature="0" />
      <path
         d="m 154.42657,319.31683 c -1e-5,2.35569 -1.80831,3.53354 -5.42488,3.53355 l -2.9636,0 c -0.61951,-10e-6 -0.92927,-0.32124 -0.92926,-0.9637 -1e-5,-0.62599 0.30975,-0.93898 0.92926,-0.93898 l 3.16452,0 c 1.90874,0 2.86312,-0.54363 2.86313,-1.63087 l 0,-0.12356 -8.74009,0 c -4.13564,0 -6.20345,-1.24374 -6.20345,-3.73123 l 0,-8.32733 c 0,-0.64245 0.39347,-0.96368 1.18041,-0.96369 0.78694,10e-6 1.18042,0.32124 1.18042,0.96369 l 0,8.32733 c 0,1.18609 1.13018,1.77913 3.39055,1.77913 l 9.19216,0 0,-10.10646 c -1e-5,-0.64245 0.38509,-0.96368 1.1553,-0.96369 0.80368,10e-6 1.20552,0.32124 1.20553,0.96369 l 0,12.18212"
         style="font-size:35px;font-style:normal;font-variant:normal;font-weight:normal;font-stretch:normal;line-height:125%;letter-spacing:0px;word-spacing:0px;fill:#007db2;fill-opacity:1;stroke:none;font-family:Neuropol X;-inkscape-font-specification:Neuropol X"
         id="path4874"
         inkscape:connector-curvature="0" />
      <path
         d="m 177.79156,315.09139 c -2e-5,2.73459 -2.11806,4.10188 -6.35414,4.10188 l -6.9318,0 c -4.60446,0 -6.90668,-1.35905 -6.90668,-4.07717 l 0,-8.72269 c 0,-2.65222 2.32734,-3.97833 6.98203,-3.97834 l 2.71244,0 c 0.60275,10e-6 0.90413,0.32125 0.90415,0.9637 -2e-5,0.65895 -0.3014,0.98842 -0.90415,0.9884 l -1.95899,0 c -3.44915,2e-5 -5.17374,0.67543 -5.17373,2.02624 l 0,8.72269 c -10e-6,1.38377 1.47342,2.07565 4.42028,2.07565 l 6.85645,0 c 2.5115,0 3.76726,-0.67541 3.76728,-2.02623 l 0,-4.49725 c -2e-5,-0.6754 0.43531,-1.01311 1.30599,-1.01312 0.85389,1e-5 1.28085,0.33772 1.28087,1.01312 l 0,4.42312"
         style="font-size:35px;font-style:normal;font-variant:normal;font-weight:normal;font-stretch:normal;line-height:125%;letter-spacing:0px;word-spacing:0px;fill:#4d4d4d;fill-opacity:1;stroke:none;font-family:Neuropol X;-inkscape-font-specification:Neuropol X"
         id="path4876"
         inkscape:connector-curvature="0" />
      <path
         d="m 208.90263,318.25429 c -3e-5,0.70835 -0.44373,1.06254 -1.3311,1.06254 -0.78697,0 -1.18044,-0.35419 -1.18042,-1.06254 l 0,-12.25625 -9.56889,12.42922 c -0.46883,0.60951 -1.03811,0.90604 -1.70784,0.88957 -0.77021,0 -1.3646,-0.29653 -1.78318,-0.88957 l -9.71958,-12.40451 0,12.23154 c 0,0.70835 -0.41022,1.06254 -1.23065,1.06254 -0.83717,0 -1.25576,-0.35419 -1.25576,-1.06254 l 0,-14.55429 c 0,-0.95544 0.47719,-1.43318 1.43157,-1.43319 0.66974,10e-6 1.23065,0.2883 1.68272,0.86485 l 10.9,13.71415 10.69908,-13.8377 c 0.18415,-0.23061 0.41856,-0.41182 0.70322,-0.54362 0.28461,-0.13177 0.56926,-0.19767 0.85392,-0.19768 1.00458,10e-6 1.50688,0.49422 1.50691,1.48261 l 0,14.50487"
         style="font-size:35px;font-style:normal;font-variant:normal;font-weight:normal;font-stretch:normal;line-height:125%;letter-spacing:0px;word-spacing:0px;fill:#4d4d4d;fill-opacity:1;stroke:none;font-family:Neuropol X;-inkscape-font-specification:Neuropol X"
         id="path4878"
         inkscape:connector-curvature="0" />
      <path
         d="m 229.35112,306.91232 c -2e-5,-1.69675 -1.38973,-2.54513 -4.16912,-2.54515 l -6.103,0 c -2.94686,2e-5 -4.42028,0.8484 -4.42027,2.54515 l 0,7.85783 c -1e-5,1.6144 1.47341,2.4216 4.42027,2.4216 l 5.95231,0 c 2.87985,0 4.31979,-0.8072 4.31981,-2.4216 l 0,-7.85783 m 2.53664,7.88254 c -2e-5,2.93228 -2.51992,4.39841 -7.55968,4.39841 l -4.72166,0 c -5.0063,0 -7.50945,-1.4579 -7.50944,-4.3737 l 0,-8.05551 c -1e-5,-2.89932 2.50314,-4.34898 7.50944,-4.34899 l 4.72166,0 c 5.03976,10e-6 7.55966,1.44967 7.55968,4.34899 l 0,8.0308"
         style="font-size:35px;font-style:normal;font-variant:normal;font-weight:normal;font-stretch:normal;line-height:125%;letter-spacing:0px;word-spacing:0px;fill:#4d4d4d;fill-opacity:1;stroke:none;font-family:Neuropol X;-inkscape-font-specification:Neuropol X"
         id="path4880"
         inkscape:connector-curvature="0" />
    </g>
    <path
       id="path5460"
       d="m 629.63922,368.22961 c -0.34261,-6.93345 -3.2869,-8.28973 -8.3249,-12.14522 -5.03803,-3.85548 -17.52229,-12.72361 -19.93265,-13.88043 -2.41036,-1.15645 -5.47666,-0.77144 -6.7911,-1.73487 -1.31447,-0.96343 -7.99367,-9.34947 -15.66134,-9.34947 -7.66769,0 -10.40523,2.40925 -10.62499,3.95252 -0.21973,1.5429 2.62849,1.15647 2.62849,1.73487 0,0.5784 -5.25571,3.18072 -6.57016,4.33754 -1.31444,1.15649 0.9844,2.83213 1.53258,3.95218 0.3296,0.67476 -0.32193,4.29725 1.64283,4.4339 4.16225,0.28938 6.24255,-2.12025 7.11952,-1.34986 0.83442,0.73326 -0.21975,3.66349 -0.21975,5.20534 0,1.54183 -0.22053,9.44691 -1.75311,11.18178 -1.53256,1.73486 -3.06511,4.43352 -8.76115,7.51826 -5.69643,3.08511 -7.88582,3.85655 -10.73404,6.55522 -2.8478,2.69864 -7.44792,8.86741 -5.25693,11.37375 2.19099,2.50634 2.84783,0.38535 5.25693,-0.5784 2.40914,-0.96345 4.38202,-0.19204 5.4767,-2.69868 1.09469,-2.50668 5.03759,-8.4831 8.32328,-7.71168 0,0 -1.5338,7.71168 -3.28569,10.02535 -1.75191,2.31363 -4.16266,8.8674 -4.16266,10.21728 0,1.34986 -1.97125,1.34986 -1.97125,3.27704 0,1.92722 2.84821,1.92794 6.79113,1.92794 3.94291,0 4.16265,-1.15646 3.94291,-2.11991 -0.21976,-0.9634 -3.2857,-1.54181 -2.62849,-2.89169 0.65722,-1.34984 2.84661,1.34988 3.72357,0 0.87695,-1.34984 0.87818,-2.11989 -0.21811,-3.85548 -1.09633,-1.73486 -1.09633,-2.50634 -1.09633,-3.47011 0,-0.96377 7.23022,-7.90578 9.63891,-9.64137 2.40915,-1.73487 10.07562,-5.01193 10.07562,-6.55486 0,-1.54288 0,-7.32523 0,-7.90363 0,-0.57841 3.28689,-3.4701 5.03918,-3.4701 1.75235,0 10.07563,3.27706 10.07563,5.01195 0,1.73486 -8.54305,9.44689 -8.32328,13.88006 0.21933,4.4339 2.41032,11.37413 2.19099,16.1941 0,0 -8.76239,3.85548 -10.73403,3.85548 -1.97166,0 -3.2857,-1.7349 -3.2857,0.38501 0,2.12023 2.62727,1.92828 4.38078,2.12023 1.75354,0.19203 18.62106,0.96343 19.4964,-0.19342 0.87533,-1.15646 0.43625,-8.09667 0.21812,-11.76016 -0.21812,-3.66317 -2.18977,-7.32525 -2.18977,-8.86851 0,-1.54327 2.62845,-2.50634 6.35204,-4.43354 0,0 0.21811,4.04852 1.75189,5.7834 1.53378,1.73487 13.28787,7.4915 13.36249,8.86849 0.32882,6.07278 -9.85749,7.61462 -9.85749,9.73592 h 12.04849 c 0,0 8.54301,-8.38604 8.54301,-9.73592 0,-1.34984 -9.63893,-11.7602 -12.04805,-12.14522 -2.40912,-0.38501 -2.40912,-0.5784 -2.40912,-1.92824 0,-1.34988 7.44835,-8.67334 7.2286,-13.10686 z"
       inkscape:connector-curvature="0"
       style="fill:#4d4d4d;fill-opacity:1" />
    <path
       id="path5467"
       d="m 445.19973,291.30879 c 0,0 1.31404,-7.71166 -3.72355,-10.98872 -5.03802,-3.27708 -5.91333,-2.89171 -10.95256,-3.08511 -5.03881,-0.19295 -8.32328,0.96379 -9.19984,2.31329 -0.87655,1.34986 -1.0959,2.89169 -1.0959,2.89169 0,0 -2.62845,0.96343 -2.62845,2.31329 0,1.34986 1.97122,0.5784 1.97122,1.92828 0,1.34988 -2.84657,4.24157 -2.40871,5.01194 0.43749,0.77037 2.62806,-0.96342 2.62806,0.1934 0,1.15648 -0.21935,3.66317 1.31443,4.81997 1.53379,1.15683 7.01045,0.77038 8.76238,1.3488 1.75189,0.5784 3.50542,2.50668 3.94288,4.24157 0.4375,1.73486 -3.06713,4.43352 -2.84779,7.32521 0.21934,2.89171 5.03758,6.16877 5.03758,10.2173 0,4.0485 -5.47544,6.55518 -8.32328,8.29007 -2.84779,1.73524 -8.32448,2.3133 -10.734,2.3133 -2.40871,0 -7.86391,0.0559 -8.54264,2.89169 -0.32878,1.37376 0.84171,2.25904 1.93034,3.45229 1.48348,1.62674 2.82914,0.76788 3.65542,0.21003 1.2877,-0.86779 1.25686,-1.88652 2.46425,-2.07207 1.88937,-0.28903 6.18784,0.82034 7.72161,0.82034 1.5338,0 13.14315,-2.60375 13.80038,-2.60375 0.6568,0 0.21933,3.6621 0.21933,5.01194 0,1.34988 -7.44792,7.51863 -9.19983,10.60374 -1.75189,3.08509 -8.54301,13.68703 -8.54301,16.57874 0,2.89169 4.60011,15.80906 4.60011,18.122 0,2.31327 0.87533,6.94019 0.87533,9.06082 0,2.11987 -5.25733,6.16875 -7.66605,7.13328 -2.40912,0.96448 -10.29654,3.66349 -10.07681,5.97678 l 14.01971,0.19295 c 0,0 5.47669,-1.15682 7.88582,-0.96343 2.4087,0.19295 7.22982,1.54181 8.10513,-0.38538 0.87536,-1.92684 0.21813,-4.62656 -1.75313,-6.93985 -1.97124,-2.31329 -1.75189,-6.16877 -1.75189,-8.48207 0,-2.31329 2.62848,-5.20534 3.28569,-8.67543 0.65681,-3.47012 0,-7.71167 -1.97164,-9.25386 -1.97126,-1.54185 -3.06634,-3.08511 -1.97126,-4.81997 1.09509,-1.73489 5.91456,-4.43356 5.91456,-4.43356 0,0 0.43745,6.74683 1.09469,7.90329 0.6572,1.15682 7.8858,5.59036 11.17147,8.48205 3.28571,2.89173 10.51469,8.48206 11.39126,11.7602 0.87654,3.27814 1.75312,7.13326 -1.0947,8.86849 -2.8478,1.73525 -7.01047,2.69867 -6.7911,4.04888 0.21973,1.34951 -0.4387,1.54148 2.40912,1.54148 2.84779,0 7.00922,0.57841 8.5426,-1.34951 1.53377,-1.92827 3.06757,-4.62692 6.13391,-5.39838 3.06633,-0.77146 4.38199,0.19295 4.81988,-2.12023 0.43746,-2.31331 -0.87537,-3.47012 -2.62848,-5.39842 -1.75312,-1.9279 -8.76234,-5.78338 -8.76234,-8.09667 0,-2.3133 0.43906,-5.59141 -4.3808,-8.86848 -4.81947,-3.27708 -8.76075,-5.39838 -8.54263,-8.09705 0.21813,-2.69866 3.7248,-4.62656 3.94291,-6.93985 0.21812,-2.3133 -0.001,-6.94022 2.84659,-9.8323 2.84781,-2.8917 2.62847,-5.78339 2.62847,-9.44688 0,-3.66351 -0.87534,-4.81996 1.75311,-7.51865 2.62849,-2.69864 5.25735,-9.63888 5.25735,-14.07345 0,-4.43497 -5.69479,-10.21837 -8.9805,-12.14558 -3.2857,-1.9272 -3.72477,-5.59035 -6.13391,-6.94021 -2.41034,-1.34915 -9.42079,-6.93845 -9.42079,-6.93845 z"
       inkscape:connector-curvature="0"
       style="fill:#4d4d4d;fill-opacity:1" />
    <path
       id="path5474"
       d="m 352.3771,333.40791 c -0.67221,-0.70828 -0.47192,-0.56304 -0.61625,-1.6992 -0.041,-0.32542 0.0989,-0.78963 0.20553,-1.01193 0.62927,-1.3149 3.61979,-3.42622 4.04469,-4.24336 0.61342,-1.17539 1.91245,-3.0487 3.84153,-4.76646 1.92908,-1.71773 9.61342,-11.09862 11.0896,-12.78677 0.82142,-0.93988 -0.76628,-14.98908 -0.76628,-15.95287 0,-0.96379 2.62846,-7.71094 2.62846,-8.86776 0,-1.15683 -0.10949,-5.30241 -0.10949,-5.30241 0,0 -3.94288,0.38537 -4.81943,-0.19341 -0.87658,-0.5784 -0.87658,-1.54183 -0.87658,-1.54183 l -0.65723,-1.15681 c 0,0 0.21937,-1.73382 0.21937,-2.69865 0,-0.96486 -1.75191,0.96341 -1.75191,-0.19342 0,-1.1568 3.28569,-4.43352 3.28569,-5.59036 0,-1.15679 -1.09592,-0.38642 -1.09592,-1.34984 0,-0.96343 1.5334,-1.3488 3.06716,-3.66209 1.53379,-2.3133 6.7899,-3.85548 10.07559,-3.27705 3.28569,0.5784 8.76235,3.27814 8.76235,8.67543 0,5.39695 -5.47666,9.63888 -5.47666,9.63888 0,0 1.31401,1.92933 3.28568,2.50775 1.97125,0.5784 2.40994,2.31329 4.16225,4.43354 1.7523,2.12025 5.03798,6.94023 4.81823,9.06046 -0.21931,2.12027 3.72519,12.72362 3.72519,15.03727 0,2.31363 -1.09466,5.01194 -1.97124,7.90363 -0.87697,2.89171 -4.60054,8.67546 -4.60054,8.67546 0,0 -0.21934,6.94022 -0.21934,10.21728 0,3.27708 -3.94289,4.43354 -3.94289,4.43354 0,0 0.21932,20.04704 1.53338,23.32485 1.31443,3.27848 5.91456,8.86848 5.91456,8.86848 0,0 0.21931,12.91666 0.21931,17.35054 0,4.43354 1.75193,6.16843 2.18979,8.67546 0.43747,2.50632 -1.09467,4.81997 -1.09467,4.81997 l -23.00021,0.57806 c 0,0 0,0 0,-2.31293 0,-2.31328 7.22857,-1.73522 9.41958,-2.69867 2.19059,-0.96341 3.06634,-2.89169 3.06634,-4.81997 0,-1.92826 0.65723,-8.48204 -0.43787,-11.95217 -1.0947,-3.47009 -7.01047,-17.73555 -7.01047,-17.73555 l -2.84659,-6.74717 c 0,0 -2.62804,2.31329 -4.38198,5.59035 -1.75313,3.27707 -1.31403,3.66246 0.43906,6.74719 1.75316,3.08474 1.0947,5.97643 -0.65719,10.41032 -1.75191,4.43354 -3.50542,12.1452 -3.50542,14.84387 0,2.69864 0,10.6037 0,10.6037 0,0 -21.90513,0.38502 -24.31465,0.38502 -2.40871,0 -2.84782,2.12025 -2.84782,-0.96342 0,-3.08366 3.50543,-2.50633 9.19984,-3.27706 5.69523,-0.77039 9.63895,-9.6389 9.63895,-9.6389 0,0 0.21813,-23.90538 0.43788,-31.42401 0.21931,-7.51826 1.53336,-9.44582 2.19057,-16.00068 0.65722,-6.55484 6.57137,-15.03724 6.57137,-15.03724 l 0.87533,-6.94024 0.0554,-1.95182 c 0,0 -2.83281,1.72275 -6.2689,5.61249 -0.79061,0.89564 -2.76429,3.08044 -3.80832,3.47295 -0.36326,0.13674 -0.71358,0.10774 -0.87653,0.48172 -1.69679,3.90437 -2.04465,4.48384 -3.8878,4.42176 -1.06711,-0.036 -2.15938,0.036 -3.12066,-0.97592 z"
       inkscape:connector-curvature="0"
       style="fill:#4d4d4d;fill-opacity:1" />
    <path
       id="path5481"
       d="m 474.77129,295.93573 c 0,-0.77146 -3.5042,-0.96343 -3.5042,-2.69866 0,-1.7349 2.40871,-1.15684 2.40871,-1.7349 0,-0.5784 -1.53336,-2.12021 0,-3.47009 1.53379,-1.34986 7.44833,-3.85657 9.63772,-3.85657 2.18939,0 6.57136,0 8.3249,0.77148 1.75353,0.77144 7.8858,5.78338 10.07558,7.71168 2.18979,1.92828 9.41959,4.04852 12.70528,6.94021 3.28567,2.89171 9.63771,7.13219 12.04805,11.95218 2.41032,4.81994 3.94168,10.0253 7.22735,14.8442 3.28571,4.81889 7.47147,7.32986 7.23022,13.30201 -0.21811,5.39838 -3.72477,8.09669 -5.03923,9.63888 -1.31441,1.54219 -2.4091,9.8323 -3.0663,11.95217 -0.65723,2.12025 -5.03923,6.16877 -5.03923,6.16877 0,0 0.21973,1.15682 2.84822,2.69865 2.62844,1.54185 4.16225,4.62694 4.16225,4.62694 0,0 1.0947,7.90614 1.0947,11.76126 0,3.85546 2.4091,9.44727 3.50542,11.18212 1.09631,1.7349 3.94291,3.66317 1.53256,5.59038 -2.41036,1.92682 -7.22861,-1.34988 -10.51428,-1.15684 -3.28568,0.1934 -18.18072,1.54185 -18.18072,1.54185 -0.21935,-4.43354 6.352,-4.43354 8.98048,-4.43354 2.62849,0 6.1339,-5.39838 6.1339,-8.09703 0,-2.69866 -2.40912,-5.78342 -2.40912,-5.78342 0,0 -8.10515,-13.49505 -10.07679,-17.35054 -1.97128,-3.85548 -3.72359,-1.34986 -3.72359,-1.34986 l 0.21814,5.20535 0.21976,0.77144 c 2.84821,3.08511 3.28569,7.71167 0.87653,12.3386 -2.40912,4.62658 -1.75311,10.79535 -1.75311,12.14521 0,1.34988 0.4391,5.78338 -0.43788,7.32523 -0.87694,1.54185 -4.16225,1.15684 -4.16225,1.15684 l -26.28587,0.96341 c 0,0 0,0 0.4391,-2.12025 0.43868,-2.11989 3.06633,-1.15645 5.03759,-1.15645 1.97123,0 7.22899,-2.50668 10.29491,-4.24193 3.06635,-1.73488 5.25734,-8.28972 5.03923,-11.76018 -0.21812,-3.47011 -2.62847,-16.96519 -2.62847,-22.3625 0,-5.39733 2.191,-5.01195 3.72355,-7.32523 0.64425,-0.97162 1.00754,-1.86512 1.22442,-2.58697 0.16179,-0.15332 0.31829,-0.32291 0.4687,-0.52419 1.83136,-2.46458 2.63252,-5.79229 3.07528,-8.67294 0.32597,-2.11919 0.66976,-4.58839 -0.19495,-6.66902 -0.0243,-0.30725 -0.041,-0.61447 -0.0871,-0.9217 -0.0435,-0.28829 -0.14337,-0.55807 -0.28867,-0.79606 0.13711,-0.20434 0.23594,-0.43852 0.27082,-0.71401 -1.13077,0.91704 -2.01787,1.59608 -2.42859,1.8141 -1.96637,1.04903 -8.46436,2.56984 -10.6363,4.23371 -1.3862,1.06298 -0.44395,2.35076 -1.32986,4.34682 -0.57005,1.27957 -1.53741,3.30383 -4.87864,2.23087 -2.4517,-0.7861 -4.73758,-1.12186 -5.52938,-3.10864 -1.63515,-4.1049 5.31731,-7.91188 8.41083,-9.5586 2.757,-1.47191 8.22965,-5.20142 10.89053,-8.95271 -0.71359,-1.05049 -1.3489,-2.13951 -1.94854,-3.24817 0.11035,-1.15788 0.0669,-2.65975 -0.0848,-4.85281 -0.43748,-6.3618 -2.19099,-3.27705 -3.94292,-4.04851 -1.75189,-0.77182 -1.97166,-4.04852 -1.97166,-6.74717 0,-2.69864 -6.13349,-4.24157 -7.44831,-4.62694 -1.31407,-0.38535 -4.16105,-0.38535 -5.0376,0.77146 -0.87658,1.15684 -4.81988,0.77144 -6.57179,0.5784 -1.75149,-0.1934 -2.62846,-3.66349 -2.62846,-5.20532 3.9e-4,-1.54183 3.72395,-3.66208 3.72395,-4.43247 z"
       inkscape:connector-curvature="0"
       style="fill:#4d4d4d;fill-opacity:1" />
  </g>
</svg>
